<svg width="12" height="12" viewBox="0 0 12 12" fill="none" xmlns="http://www.w3.org/2000/svg">
<g clip-path="url(#clip0)">
<path fill-rule="evenodd" clip-rule="evenodd" d="M-2.62268e-07 5C-0.552285 5 -1 5.44771 -1 6C-1 6.55228 -0.552286 7 -3.49691e-07 7L5 7L5 12C5 12.5523 5.44771 13 6 13C6.55228 13 7 12.5523 7 12L7 7L12 7C12.5523 7 13 6.55228 13 6C13 5.44772 12.5523 5 12 5L7 5L7 -2.62268e-07C7 -0.552285 6.55228 -1 6 -1C5.44772 -1 5 -0.552285 5 -3.49691e-07L5 5L-2.62268e-07 5Z" fill="white"/>
</g>
<defs>
<clipPath id="clip0">
<rect width="12" height="12" fill="white" transform="translate(0 12) rotate(-90)"/>
</clipPath>
</defs>
</svg>
